# xmcd
#
# Track frame offsets:
#	150
#	21422
#	41535
#	67497
#	89917
#	108437
#	128402
#	152202
#	170607
#	191182
#
# Disc length: 2909 seconds
#
# Revision: 3
# Processed by: cddbd v1.4PL0 Copyright (c) Steve Scherf et al.
# Submitted via: EasyCDDAExtractor 4.5.0.2
#
DISCID=940b5b0a
DTITLE=永邦 - Shaun.come
DYEAR=2002
DGENRE=Blues
TTITLE0=威尼斯的淚
TTITLE1=廢墟
TTITLE2=支離人
TTITLE3=魔鬼的交易
TTITLE4=大爺
TTITLE5=男人淚
TTITLE6=尋情記
TTITLE7=Bum It Up
TTITLE8=野百合也有春天
TTITLE9=Tell Me Baby(DEMO)
EXTD=
EXTT0==_________\nEXTT0=_\nTTITLE1=_o_V_\nEXTT1=_\nTTITLE2=_____H_\nEXTT2=_\nT
EXTT0=TITLE3=_]_________\nEXTT3=_\nTTITLE4=_j___\nEXTT4=_\nTTITLE5=_k_H_\nEXTT
EXTT0=5=_\nTTITLE6=_M___O_\nEXTT6=_\nTTITLE7=Bum It Up_\nEXTT7=_\nTTITLE8=____
EXTT0=_X_]___K___\nEXTT8=_\nTTITLE9=T=ell Me Baby(DEMO_______\nEXTT0=_\nTTITLE
EXTT0=1=_o_V_\nEXTT1=_\nTTITLE2=_____H_\nEXTT2=_\nTTITLE3=_]_________\nEXTT3=_
EXTT0=\nTTITLE4=_j___\nEXTT4=_\nTTITLE5=_k_H_\nEXTT5=_\nTTITLE6=_M___O_\nEXTT6
EXTT0==_\nTTITLE7=Bum It Up_\nEXTT7=_\nTTITLE8=_____X_]___K___\nEXTT=8=_\nTTIT
EXTT0=LE9=T=H_\nEXTT5=_\nTTITLE6=_M___O_\nEXTT6=_\nTTITLE7=Bum It Up_\nEXTT7=_
EXTT0=\nTTITLE8=_____X_]___K___\nEXTT8=_\nTTITLE9=Tell Me Baby(DEMO)_\nEXTT9=_
EXTT0=\n_\n_\n_______\nEXTT0=_\nTTITLE1=_o_V_\nEXTT1=_\nTTITLE2=_____H_\nEXTT2
EXTT0==_\nTTITLE3=_]_______=__\nEXTT3=_\nTTITLE4=_j___\nEXTT4=_\nTTITLE5=_k_H_
EXTT0=\nEXTT5=_\nTTITLE6=_M___O_\nEXTT6=_\nTTITLE7=Bum It Up_\nEXTT7=_\nTTITLE
EXTT0=8=_____X_]___K___\nEXTT8=_\nTTITLE9=T=H_\nEXTT5=_\nTTITLE6=_M___O_\nEXTT
EXTT0=6=_\nTTITLE7=Bum It Up_\nEXTT7=_\nTTITLE8=_____X_]__=_K___\nEXTT8=_\nTTI
EXTT0=TLE9=Tell Me Baby(DEMO)_\nEXTT9=_\n_\n_\n=_________\nEXTT0=_\nTTITLE1=_o
EXTT0=_V_\nEXTT1=_\nTTITLE2=_____H_\nEXTT2=_\nTTITLE3=_]_________\nEXTT3=_TITL
EXTT0=E4=_j___\nEXTT4=_\nTTITLE5=_k_H_\nEXTT5=_\nTTITLE6=_M___O_\nEXTT6=_\nTTI
EXTT0=TLE7=Bum It=Up_\nEXTT7=_\nTTITLE8=_____X_]___K___\nEXTT8=_\nTTITLE9=T=_
EXTT0=k_H_\nEXTT5=_\nTTITLE6=_M___O_\nEXTT6=_\nTTITLE7=Bum It Up_\nEXTT7=_\nTT
EXTT0=ITLE8=_____X_]___K___\nEXT_\nTTITLE9=Tell Me Baby(DEMO)_\nEXTT9=_\n_\n_\n
EXTT0==_k_H_\nEXTT5=_\nTTITLE6=_M___O_\nEXTT6=_\nTTITLE7=Bum It Up_\nEXTT7=_\n
EXTT0=TTITLE8=_____X_]___K___\nEXTT8=_\nTTITLE9=Tell Me Baby(DEMO)_\nEXTT9=_\n
EXTT0=_\n_\n=_________\nEXTT0=_\nTTITLE1=_o_V_\nEXTT1=_\nTTITLE2=_____H_\nEXTT
EXTT0=2=_\nTTITLE3=_]_________\nEXTT3=_\nTTITLE4=_j___\nEXTT4=_\nTTITLE5=_k_H_
EXTT0=\nEXTT5=_\nTTITLE6=_M___O_\nEXTT6=_\nTTITLE7=Bum It Up_\nEXTT7=_\nTTITLE
EXTT0=8=_____X_]___K___\nEXTT8=_\nTTITLE9=T=ell Me Baby(DEMO_______\nEXTT0=_\n
EXTT0=TTITLE1=_o_V_\nEXTT1=_\nTTITLE2=_____H_\nEXTT2=_\nTTITLE3=_]_________\nE
EXTT0=XTT3=_\nTTITLE4=_j___\nEXTT4=_\nTTITLE5=_k_H_\nEXTT5=_\nTTITLE6=_M___O_\n
EXTT0=EXTT6=_\nTTITLE7=Bum It Up_\nEXTT7=_\nTTITLE8=_____X_]___K___\nEXTT=8=_\n
EXTT0=TTITLE9=T=H_\nEXTT5=_\nTTITLE6=_M___O_\nEXTT6=_\nTTITLE7=Bum It Up_\nEXT
EXTT0=T7=_\nTTITLE8=_____X_]___K___\nEXTT8=_\nTTITLE9=Tell Me Baby(DEMO)_\nEXT
EXTT0=T9=_\n_\n_\n=_k_H_\nEXTT5=_\nTTITLE6=_M___O_\nEXTT6=_\nTTITLE7=Bum It Up
EXTT0=_\nEXTT7=_\nTTITLE8=_____X_]___K___\nEXTT8=_\nTTITLE9=Tell Me Baby(DEMO)
EXTT0=_\nEXTT9=_\n_\n_\n=_________\nEXTT0=_\nTTITLE1=_o_V_\nEXTT1=_\nTTITLE2=_
EXTT0=____H_\nEXTT2=_\nTTITLE3=_]_________\nEXTT3=_\nTTITLE4=_j___\nEXTT4=_\nT
EXTT0=TITLE5=_k_H_\nEXTT5=_\nTTITLE6=_M___O_\nEXTT6=_\nTTITLE7=Bum It Up_\nEXT
EXTT0=T7=_\nTTITLE8=_____X_]___K___\nEXTT8=_\nTTITLE9=T=_k_H_\nEXTT5=_\nTTITLE
EXTT0=6=_M___O_\nEXTT6=_\nTTITLE7=Bum It Up_\nEXTT7=_\nTTITLE8=_____X_]___K___
EXTT0=\nEXTT8=_\nTTITLE9=Tell Me Baby(DEMO)_\nEXTT9=_\n_\n_\n=_________\nEXTT0
EXTT0==_\nTTITLE1=_o_V_\nEXTT1=_\nTTITLE2=_____H_\nEXTT2=_\nTTITLE3=_]________
EXTT0=_\nEXTT3=_\nTTITLE4=_j___\nEXTT4=_\nTTITLE5=_k_H_\nEXTT5=_\nTTITLE6=_M__
EXTT0=_O_\nEXTT6=_\nTTITLE7=Bum It Up_\nEXTT7=_\nTTITLE8=_____X_]___K___\nEXTT
EXTT0=8=_\nTTITLE9=T=_k_H_\nEXTT5=_\nTTITLE6=_M___O_\nEXTT6=_\nTTITLE7=Bum It 
EXTT0=Up_\nEXTT7=_\nTTITLE8=_____X_]___K___\nEXTT8=_\nTTITLE9=Tell Me Baby(DEM
EXTT0=O)_\nEXTT9=_\n_\n_\n
EXTT1=
EXTT2=
EXTT3=
EXTT4=
EXTT5=
EXTT6=
EXTT7=
EXTT8=
EXTT9=
PLAYORDER=
